# xmcd
#
# Track frame offsets:
#	150
#	9170
#	18744
#	34309
#	49261
#	61572
#	74602
#	84333
#	101432
#	114843
#	130573
#	142845
#
# Disc length: 2066 seconds
# Revision: 0
# Processed by: cddbd v1.5.2PL0 Copyright (c) Steve Scherf et al.
# Submitted via: dBpowerAMP V12.0
#
DISCID=8e08100c
DTITLE=Ray and Wanelle - Ray and Wanelle in Nashville
DYEAR=2005
DGENRE=Country
TTITLE0=Big Boys Do Cry - Good Girls Give In
TTITLE1=Another Chance
TTITLE2=Fraulein Medley
TTITLE3=Just Give Me What You Think Is Fair
TTITLE4=He Loves Me - He Loves Me Not
TTITLE5=I Almost Wish You Weren't Gone
TTITLE6=I Believe
TTITLE7=In A Weak Moment
TTITLE8=Last Kiss
TTITLE9=Sad Movies
TTITLE10=Walk Around Me Jesus
TTITLE11=What Am I Living For
EXTD=
EXTT0=
EXTT1=
EXTT2=
EXTT3=
EXTT4=
EXTT5=
EXTT6=
EXTT7=
EXTT8=
EXTT9=
EXTT10=
EXTT11=
PLAYORDER=
